<svg width="219" height="20" viewBox="0 0 219 20" fill="none" xmlns="http://www.w3.org/2000/svg">
<mask id="path-1-outside-1_2_731" maskUnits="userSpaceOnUse" x="-1" y="-1.20483" width="221" height="22" fill="black">
<rect fill="white" x="-1" y="-1.20483" width="221" height="22"/>
<path d="M19.99 15.8352L18.73 16.3452V0.385166H22.72V19.7952H18.73L3.04 4.46516L4.3 3.95517V19.7952H0.31V0.385166H4.3L19.99 15.8352ZM33.081 15.5652V12.2352H45.921V15.5652H33.081ZM28.251 19.7952L37.371 0.385166H41.691L50.901 19.7952H46.551L38.571 2.30517H40.491L32.571 19.7952H28.251ZM52.252 0.385166H72.712V3.71517H52.252V0.385166ZM60.502 3.29517H64.492V19.7952H60.502V3.29517ZM78.1853 0.385166H99.0353V3.71517L81.7253 17.5752L81.3653 16.4652H99.0353V19.7952H78.1853V16.4652L95.4953 2.60517L95.8553 3.71517H78.1853V0.385166ZM105.944 19.7952V0.385166H119.114C120.614 0.385166 121.914 0.595165 123.014 1.01516C124.134 1.41517 125.004 2.05517 125.624 2.93516C126.244 3.79516 126.554 4.90516 126.554 6.26516C126.554 7.18517 126.394 7.96517 126.074 8.60517C125.754 9.24517 125.304 9.76517 124.724 10.1652C124.164 10.5652 123.514 10.8752 122.774 11.0952C122.034 11.2952 121.244 11.4252 120.404 11.4852L119.984 11.2452C121.384 11.2652 122.534 11.3852 123.434 11.6052C124.334 11.8052 125.004 12.1852 125.444 12.7452C125.904 13.2852 126.134 14.0952 126.134 15.1752V19.7952H122.144V15.4452C122.144 14.7052 122.014 14.1352 121.754 13.7352C121.494 13.3152 121.024 13.0252 120.344 12.8652C119.684 12.7052 118.724 12.6252 117.464 12.6252H109.934V19.7952H105.944ZM109.934 9.50517H119.114C120.234 9.50517 121.084 9.23517 121.664 8.69517C122.264 8.15517 122.564 7.42517 122.564 6.50517C122.564 5.62517 122.264 4.95517 121.664 4.49516C121.084 4.03516 120.234 3.80516 119.114 3.80516H109.934V9.50517ZM136.459 15.5652V12.2352H149.299V15.5652H136.459ZM131.629 19.7952L140.749 0.385166H145.069L154.279 19.7952H149.929L141.949 2.30517H143.869L135.949 19.7952H131.629ZM155.63 0.385166H176.09V3.71517H155.63V0.385166ZM163.88 3.29517H167.87V19.7952H163.88V3.29517ZM198.497 19.7952L189.917 0.385166H194.327L201.677 17.9052H200.297L207.617 0.385166H211.967L203.477 19.7952H198.497ZM218.972 16.3752V19.7952H214.442V16.3752H218.972Z"/>
</mask>
<path d="M19.99 15.8352L18.73 16.3452V0.385166H22.72V19.7952H18.73L3.04 4.46516L4.3 3.95517V19.7952H0.31V0.385166H4.3L19.99 15.8352ZM33.081 15.5652V12.2352H45.921V15.5652H33.081ZM28.251 19.7952L37.371 0.385166H41.691L50.901 19.7952H46.551L38.571 2.30517H40.491L32.571 19.7952H28.251ZM52.252 0.385166H72.712V3.71517H52.252V0.385166ZM60.502 3.29517H64.492V19.7952H60.502V3.29517ZM78.1853 0.385166H99.0353V3.71517L81.7253 17.5752L81.3653 16.4652H99.0353V19.7952H78.1853V16.4652L95.4953 2.60517L95.8553 3.71517H78.1853V0.385166ZM105.944 19.7952V0.385166H119.114C120.614 0.385166 121.914 0.595165 123.014 1.01516C124.134 1.41517 125.004 2.05517 125.624 2.93516C126.244 3.79516 126.554 4.90516 126.554 6.26516C126.554 7.18517 126.394 7.96517 126.074 8.60517C125.754 9.24517 125.304 9.76517 124.724 10.1652C124.164 10.5652 123.514 10.8752 122.774 11.0952C122.034 11.2952 121.244 11.4252 120.404 11.4852L119.984 11.2452C121.384 11.2652 122.534 11.3852 123.434 11.6052C124.334 11.8052 125.004 12.1852 125.444 12.7452C125.904 13.2852 126.134 14.0952 126.134 15.1752V19.7952H122.144V15.4452C122.144 14.7052 122.014 14.1352 121.754 13.7352C121.494 13.3152 121.024 13.0252 120.344 12.8652C119.684 12.7052 118.724 12.6252 117.464 12.6252H109.934V19.7952H105.944ZM109.934 9.50517H119.114C120.234 9.50517 121.084 9.23517 121.664 8.69517C122.264 8.15517 122.564 7.42517 122.564 6.50517C122.564 5.62517 122.264 4.95517 121.664 4.49516C121.084 4.03516 120.234 3.80516 119.114 3.80516H109.934V9.50517ZM136.459 15.5652V12.2352H149.299V15.5652H136.459ZM131.629 19.7952L140.749 0.385166H145.069L154.279 19.7952H149.929L141.949 2.30517H143.869L135.949 19.7952H131.629ZM155.63 0.385166H176.09V3.71517H155.63V0.385166ZM163.88 3.29517H167.87V19.7952H163.88V3.29517ZM198.497 19.7952L189.917 0.385166H194.327L201.677 17.9052H200.297L207.617 0.385166H211.967L203.477 19.7952H198.497ZM218.972 16.3752V19.7952H214.442V16.3752H218.972Z" fill="#222222"/>
<path d="M19.99 15.8352L20.3652 16.7621L21.7765 16.1909L20.6916 15.1226L19.99 15.8352ZM18.73 16.3452H17.73V17.8287L19.1052 17.2721L18.73 16.3452ZM18.73 0.385166V-0.614834H17.73V0.385166H18.73ZM22.72 0.385166H23.72V-0.614834H22.72V0.385166ZM22.72 19.7952V20.7952H23.72V19.7952H22.72ZM18.73 19.7952L18.0311 20.5104L18.3226 20.7952H18.73V19.7952ZM3.04 4.46516L2.66481 3.53822L1.24751 4.11189L2.34115 5.18043L3.04 4.46516ZM4.3 3.95517H5.3V2.47159L3.92481 3.02822L4.3 3.95517ZM4.3 19.7952V20.7952H5.3V19.7952H4.3ZM0.31 19.7952H-0.69V20.7952H0.31V19.7952ZM0.31 0.385166V-0.614834H-0.69V0.385166H0.31ZM4.3 0.385166L5.00164 -0.32737L4.70971 -0.614834H4.3V0.385166ZM19.6148 14.9082L18.3548 15.4182L19.1052 17.2721L20.3652 16.7621L19.6148 14.9082ZM19.73 16.3452V0.385166H17.73V16.3452H19.73ZM18.73 1.38517H22.72V-0.614834H18.73V1.38517ZM21.72 0.385166V19.7952H23.72V0.385166H21.72ZM22.72 18.7952H18.73V20.7952H22.72V18.7952ZM19.4289 19.0799L3.73885 3.7499L2.34115 5.18043L18.0311 20.5104L19.4289 19.0799ZM3.41519 5.39211L4.67519 4.88211L3.92481 3.02822L2.66481 3.53822L3.41519 5.39211ZM3.3 3.95517V19.7952H5.3V3.95517H3.3ZM4.3 18.7952H0.31V20.7952H4.3V18.7952ZM1.31 19.7952V0.385166H-0.69V19.7952H1.31ZM0.31 1.38517H4.3V-0.614834H0.31V1.38517ZM3.59836 1.0977L19.2884 16.5477L20.6916 15.1226L5.00164 -0.32737L3.59836 1.0977ZM33.081 15.5652H32.081V16.5652H33.081V15.5652ZM33.081 12.2352V11.2352H32.081V12.2352H33.081ZM45.921 12.2352H46.921V11.2352H45.921V12.2352ZM45.921 15.5652V16.5652H46.921V15.5652H45.921ZM28.251 19.7952L27.3459 19.3699L26.6763 20.7952H28.251V19.7952ZM37.371 0.385166V-0.614834H36.736L36.4659 -0.0400924L37.371 0.385166ZM41.691 0.385166L42.5945 -0.0435209L42.3234 -0.614834H41.691V0.385166ZM50.901 19.7952V20.7952H52.4824L51.8045 19.3665L50.901 19.7952ZM46.551 19.7952L45.6412 20.2103L45.9081 20.7952H46.551V19.7952ZM38.571 2.30517V1.30517H37.0156L37.6612 2.72026L38.571 2.30517ZM40.491 2.30517L41.402 2.71767L42.0416 1.30517H40.491V2.30517ZM32.571 19.7952V20.7952H33.2159L33.482 20.2077L32.571 19.7952ZM34.081 15.5652V12.2352H32.081V15.5652H34.081ZM33.081 13.2352H45.921V11.2352H33.081V13.2352ZM44.921 12.2352V15.5652H46.921V12.2352H44.921ZM45.921 14.5652H33.081V16.5652H45.921V14.5652ZM29.1561 20.2204L38.2761 0.810424L36.4659 -0.0400924L27.3459 19.3699L29.1561 20.2204ZM37.371 1.38517H41.691V-0.614834H37.371V1.38517ZM40.7876 0.813852L49.9976 20.2239L51.8045 19.3665L42.5945 -0.0435209L40.7876 0.813852ZM50.901 18.7952H46.551V20.7952H50.901V18.7952ZM47.4608 19.3801L39.4808 1.89007L37.6612 2.72026L45.6412 20.2103L47.4608 19.3801ZM38.571 3.30517H40.491V1.30517H38.571V3.30517ZM39.5801 1.89266L31.6601 19.3827L33.482 20.2077L41.402 2.71767L39.5801 1.89266ZM32.571 18.7952H28.251V20.7952H32.571V18.7952ZM52.252 0.385166V-0.614834H51.252V0.385166H52.252ZM72.712 0.385166H73.712V-0.614834H72.712V0.385166ZM72.712 3.71517V4.71517H73.712V3.71517H72.712ZM52.252 3.71517H51.252V4.71517H52.252V3.71517ZM60.502 3.29517V2.29517H59.502V3.29517H60.502ZM64.492 3.29517H65.492V2.29517H64.492V3.29517ZM64.492 19.7952V20.7952H65.492V19.7952H64.492ZM60.502 19.7952H59.502V20.7952H60.502V19.7952ZM52.252 1.38517H72.712V-0.614834H52.252V1.38517ZM71.712 0.385166V3.71517H73.712V0.385166H71.712ZM72.712 2.71517H52.252V4.71517H72.712V2.71517ZM53.252 3.71517V0.385166H51.252V3.71517H53.252ZM60.502 4.29517H64.492V2.29517H60.502V4.29517ZM63.492 3.29517V19.7952H65.492V3.29517H63.492ZM64.492 18.7952H60.502V20.7952H64.492V18.7952ZM61.502 19.7952V3.29517H59.502V19.7952H61.502ZM78.1853 0.385166V-0.614834H77.1853V0.385166H78.1853ZM99.0353 0.385166H100.035V-0.614834H99.0353V0.385166ZM99.0353 3.71517L99.6603 4.49577L100.035 4.19553V3.71517H99.0353ZM81.7253 17.5752L80.7741 17.8837L81.2206 19.2604L82.3503 18.3558L81.7253 17.5752ZM81.3653 16.4652V15.4652H79.9897L80.4141 16.7737L81.3653 16.4652ZM99.0353 16.4652H100.035V15.4652H99.0353V16.4652ZM99.0353 19.7952V20.7952H100.035V19.7952H99.0353ZM78.1853 19.7952H77.1853V20.7952H78.1853V19.7952ZM78.1853 16.4652L77.5603 15.6846L77.1853 15.9848V16.4652H78.1853ZM95.4953 2.60517L96.4465 2.29666L96 0.919973L94.8703 1.82456L95.4953 2.60517ZM95.8553 3.71517V4.71517H97.2309L96.8065 3.40666L95.8553 3.71517ZM78.1853 3.71517H77.1853V4.71517H78.1853V3.71517ZM78.1853 1.38517H99.0353V-0.614834H78.1853V1.38517ZM98.0353 0.385166V3.71517H100.035V0.385166H98.0353ZM98.4103 2.93456L81.1003 16.7946L82.3503 18.3558L99.6603 4.49577L98.4103 2.93456ZM82.6765 17.2667L82.3165 16.1567L80.4141 16.7737L80.7741 17.8837L82.6765 17.2667ZM81.3653 17.4652H99.0353V15.4652H81.3653V17.4652ZM98.0353 16.4652V19.7952H100.035V16.4652H98.0353ZM99.0353 18.7952H78.1853V20.7952H99.0353V18.7952ZM79.1853 19.7952V16.4652H77.1853V19.7952H79.1853ZM78.8103 17.2458L96.1203 3.38577L94.8703 1.82456L77.5603 15.6846L78.8103 17.2458ZM94.5441 2.91367L94.9041 4.02367L96.8065 3.40666L96.4465 2.29666L94.5441 2.91367ZM95.8553 2.71517H78.1853V4.71517H95.8553V2.71517ZM79.1853 3.71517V0.385166H77.1853V3.71517H79.1853ZM105.944 19.7952H104.944V20.7952H105.944V19.7952ZM105.944 0.385166V-0.614834H104.944V0.385166H105.944ZM123.014 1.01516L122.657 1.94938L122.667 1.95326L122.678 1.95691L123.014 1.01516ZM125.624 2.93516L124.806 3.51115L124.813 3.51997L125.624 2.93516ZM126.074 8.60517L125.18 8.15795L125.18 8.15795L126.074 8.60517ZM124.724 10.1652L124.156 9.34195L124.149 9.34664L124.143 9.35143L124.724 10.1652ZM122.774 11.0952L123.035 12.0605L123.047 12.0573L123.059 12.0537L122.774 11.0952ZM120.404 11.4852L119.908 12.3534L120.172 12.5043L120.475 12.4826L120.404 11.4852ZM119.984 11.2452L119.998 10.2453L119.488 12.1134L119.984 11.2452ZM123.434 11.6052L123.197 12.5766L123.207 12.5791L123.217 12.5814L123.434 11.6052ZM125.444 12.7452L124.658 13.363L124.67 13.3786L124.683 13.3936L125.444 12.7452ZM126.134 19.7952V20.7952H127.134V19.7952H126.134ZM122.144 19.7952H121.144V20.7952H122.144V19.7952ZM121.754 13.7352L120.904 14.2615L120.91 14.2709L120.916 14.2802L121.754 13.7352ZM120.344 12.8652L120.108 13.837L120.115 13.8386L120.344 12.8652ZM109.934 12.6252V11.6252H108.934V12.6252H109.934ZM109.934 19.7952V20.7952H110.934V19.7952H109.934ZM109.934 9.50517H108.934V10.5052H109.934V9.50517ZM121.664 8.69517L120.995 7.95187L120.989 7.95752L120.983 7.96327L121.664 8.69517ZM121.664 4.49516L121.043 5.27866L121.049 5.28377L121.056 5.28877L121.664 4.49516ZM109.934 3.80516V2.80516H108.934V3.80516H109.934ZM106.944 19.7952V0.385166H104.944V19.7952H106.944ZM105.944 1.38517H119.114V-0.614834H105.944V1.38517ZM119.114 1.38517C120.524 1.38517 121.698 1.58297 122.657 1.94938L123.371 0.080946C122.13 -0.392636 120.704 -0.614834 119.114 -0.614834V1.38517ZM122.678 1.95691C123.625 2.29513 124.318 2.81735 124.807 3.51112L126.441 2.35921C125.69 1.29298 124.643 0.535197 123.35 0.0734229L122.678 1.95691ZM124.813 3.51997C125.279 4.16707 125.554 5.05562 125.554 6.26516H127.554C127.554 4.75471 127.209 3.42326 126.435 2.35036L124.813 3.51997ZM125.554 6.26516C125.554 7.07286 125.413 7.69069 125.18 8.15795L126.968 9.05238C127.375 8.23964 127.554 7.29747 127.554 6.26516H125.554ZM125.18 8.15795C124.934 8.64953 124.595 9.03927 124.156 9.34195L125.292 10.9884C126.013 10.4911 126.574 9.8408 126.968 9.05238L125.18 8.15795ZM124.143 9.35143C123.683 9.67978 123.136 9.94437 122.489 10.1366L123.059 12.0537C123.892 11.806 124.645 11.4506 125.305 10.9789L124.143 9.35143ZM122.513 10.1298C121.841 10.3115 121.115 10.4318 120.333 10.4877L120.475 12.4826C121.373 12.4185 122.227 12.2788 123.035 12.0605L122.513 10.1298ZM120.9 10.6169L120.48 10.3769L119.488 12.1134L119.908 12.3534L120.9 10.6169ZM119.97 12.2451C121.329 12.2645 122.397 12.381 123.197 12.5766L123.671 10.6338C122.671 10.3893 121.439 10.2659 119.998 10.2453L119.97 12.2451ZM123.217 12.5814C123.959 12.7462 124.398 13.0323 124.658 13.363L126.23 12.1273C125.61 11.338 124.709 10.8641 123.651 10.629L123.217 12.5814ZM124.683 13.3936C124.926 13.679 125.134 14.2136 125.134 15.1752H127.134C127.134 13.9767 126.882 12.8914 126.205 12.0967L124.683 13.3936ZM125.134 15.1752V19.7952H127.134V15.1752H125.134ZM126.134 18.7952H122.144V20.7952H126.134V18.7952ZM123.144 19.7952V15.4452H121.144V19.7952H123.144ZM123.144 15.4452C123.144 14.6102 123.001 13.8189 122.592 13.1902L120.916 14.2802C121.027 14.4515 121.144 14.8002 121.144 15.4452H123.144ZM122.604 13.2088C122.155 12.4838 121.403 12.0871 120.573 11.8917L120.115 13.8386C120.645 13.9633 120.833 14.1466 120.904 14.2615L122.604 13.2088ZM120.58 11.8933C119.803 11.705 118.748 11.6252 117.464 11.6252V13.6252C118.7 13.6252 119.565 13.7053 120.108 13.837L120.58 11.8933ZM117.464 11.6252H109.934V13.6252H117.464V11.6252ZM108.934 12.6252V19.7952H110.934V12.6252H108.934ZM109.934 18.7952H105.944V20.7952H109.934V18.7952ZM109.934 10.5052H119.114V8.50517H109.934V10.5052ZM119.114 10.5052C120.382 10.5052 121.516 10.1994 122.345 9.42706L120.983 7.96327C120.652 8.27094 120.086 8.50517 119.114 8.50517V10.5052ZM122.333 9.43846C123.174 8.68136 123.564 7.66484 123.564 6.50517H121.564C121.564 7.18549 121.354 7.62897 120.995 7.95187L122.333 9.43846ZM123.564 6.50517C123.564 5.37178 123.162 4.38332 122.272 3.70156L121.056 5.28877C121.366 5.52701 121.564 5.87856 121.564 6.50517H123.564ZM122.285 3.71167C121.458 3.05557 120.349 2.80516 119.114 2.80516V4.80516C120.119 4.80516 120.71 5.01476 121.043 5.27866L122.285 3.71167ZM119.114 2.80516H109.934V4.80516H119.114V2.80516ZM108.934 3.80516V9.50517H110.934V3.80516H108.934ZM136.459 15.5652H135.459V16.5652H136.459V15.5652ZM136.459 12.2352V11.2352H135.459V12.2352H136.459ZM149.299 12.2352H150.299V11.2352H149.299V12.2352ZM149.299 15.5652V16.5652H150.299V15.5652H149.299ZM131.629 19.7952L130.724 19.3699L130.054 20.7952H131.629V19.7952ZM140.749 0.385166V-0.614834H140.114L139.844 -0.0400924L140.749 0.385166ZM145.069 0.385166L145.973 -0.0435209L145.702 -0.614834H145.069V0.385166ZM154.279 19.7952V20.7952H155.861L155.183 19.3665L154.279 19.7952ZM149.929 19.7952L149.019 20.2103L149.286 20.7952H149.929V19.7952ZM141.949 2.30517V1.30517H140.394L141.039 2.72026L141.949 2.30517ZM143.869 2.30517L144.78 2.71767L145.42 1.30517H143.869V2.30517ZM135.949 19.7952V20.7952H136.594L136.86 20.2077L135.949 19.7952ZM137.459 15.5652V12.2352H135.459V15.5652H137.459ZM136.459 13.2352H149.299V11.2352H136.459V13.2352ZM148.299 12.2352V15.5652H150.299V12.2352H148.299ZM149.299 14.5652H136.459V16.5652H149.299V14.5652ZM132.534 20.2204L141.654 0.810424L139.844 -0.0400924L130.724 19.3699L132.534 20.2204ZM140.749 1.38517H145.069V-0.614834H140.749V1.38517ZM144.166 0.813852L153.376 20.2239L155.183 19.3665L145.973 -0.0435209L144.166 0.813852ZM154.279 18.7952H149.929V20.7952H154.279V18.7952ZM150.839 19.3801L142.859 1.89007L141.039 2.72026L149.019 20.2103L150.839 19.3801ZM141.949 3.30517H143.869V1.30517H141.949V3.30517ZM142.958 1.89266L135.038 19.3827L136.86 20.2077L144.78 2.71767L142.958 1.89266ZM135.949 18.7952H131.629V20.7952H135.949V18.7952ZM155.63 0.385166V-0.614834H154.63V0.385166H155.63ZM176.09 0.385166H177.09V-0.614834H176.09V0.385166ZM176.09 3.71517V4.71517H177.09V3.71517H176.09ZM155.63 3.71517H154.63V4.71517H155.63V3.71517ZM163.88 3.29517V2.29517H162.88V3.29517H163.88ZM167.87 3.29517H168.87V2.29517H167.87V3.29517ZM167.87 19.7952V20.7952H168.87V19.7952H167.87ZM163.88 19.7952H162.88V20.7952H163.88V19.7952ZM155.63 1.38517H176.09V-0.614834H155.63V1.38517ZM175.09 0.385166V3.71517H177.09V0.385166H175.09ZM176.09 2.71517H155.63V4.71517H176.09V2.71517ZM156.63 3.71517V0.385166H154.63V3.71517H156.63ZM163.88 4.29517H167.87V2.29517H163.88V4.29517ZM166.87 3.29517V19.7952H168.87V3.29517H166.87ZM167.87 18.7952H163.88V20.7952H167.87V18.7952ZM164.88 19.7952V3.29517H162.88V19.7952H164.88ZM198.497 19.7952L197.582 20.1995L197.846 20.7952H198.497V19.7952ZM189.917 0.385166V-0.614834H188.381L189.002 0.789467L189.917 0.385166ZM194.327 0.385166L195.249 -0.00169107L194.992 -0.614834H194.327V0.385166ZM201.677 17.9052V18.9052H203.181L202.599 17.5183L201.677 17.9052ZM200.297 17.9052L199.374 17.5197L198.795 18.9052H200.297V17.9052ZM207.617 0.385166V-0.614834H206.951L206.694 -0.000347104L207.617 0.385166ZM211.967 0.385166L212.883 0.78591L213.496 -0.614834H211.967V0.385166ZM203.477 19.7952V20.7952H204.131L204.393 20.1959L203.477 19.7952ZM199.411 19.3909L190.831 -0.0191358L189.002 0.789467L197.582 20.1995L199.411 19.3909ZM189.917 1.38517H194.327V-0.614834H189.917V1.38517ZM193.405 0.772022L200.755 18.292L202.599 17.5183L195.249 -0.00169107L193.405 0.772022ZM201.677 16.9052H200.297V18.9052H201.677V16.9052ZM201.22 18.2907L208.54 0.770678L206.694 -0.000347104L199.374 17.5197L201.22 18.2907ZM207.617 1.38517H211.967V-0.614834H207.617V1.38517ZM211.051 -0.015579L202.561 19.3944L204.393 20.1959L212.883 0.78591L211.051 -0.015579ZM203.477 18.7952H198.497V20.7952H203.477V18.7952ZM218.972 16.3752H219.972V15.3752H218.972V16.3752ZM218.972 19.7952V20.7952H219.972V19.7952H218.972ZM214.442 19.7952H213.442V20.7952H214.442V19.7952ZM214.442 16.3752V15.3752H213.442V16.3752H214.442ZM217.972 16.3752V19.7952H219.972V16.3752H217.972ZM218.972 18.7952H214.442V20.7952H218.972V18.7952ZM215.442 19.7952V16.3752H213.442V19.7952H215.442ZM214.442 17.3752H218.972V15.3752H214.442V17.3752Z" fill="#222222" mask="url(#path-1-outside-1_2_731)"/>
</svg>
