<svg width="56" height="56" viewBox="0 0 56 56" fill="none" xmlns="http://www.w3.org/2000/svg">
<g clip-path="url(#clip0_0_24707)" filter="url(#filter0_d_0_24707)">
<path fill-rule="evenodd" clip-rule="evenodd" d="M31.3499 26.0377C31.5935 27.2969 30.9336 28.3427 30.3853 29.3579C29.7762 30.3024 28.7709 31.1141 27.5627 30.9927C24.8513 30.9521 22.2013 30.5358 19.7438 29.7943C19.6323 29.7639 19.5207 29.6926 19.4596 29.5912C19.4088 29.449 19.4801 29.3169 19.5814 29.2258C21.8256 27.4081 24.4961 26.5656 27.1361 25.6818C28.1209 25.3976 29.1671 25.0929 30.2737 25.2352C30.7302 25.2963 31.1871 25.6112 31.3499 26.0377ZM40.6002 20.6563C41.8593 21.6919 42.9966 23.1035 42.6107 24.8093C41.9811 27.3276 39.2397 28.6679 37.0566 29.5206C35.8684 29.9168 34.6704 30.3232 33.3706 30.445C33.2894 30.4348 33.1574 30.4549 33.1369 30.3331L33.1673 30.1911C35.0153 28.1093 36.4164 25.7743 37.6455 23.4083C38.214 22.3419 38.7422 21.2456 39.2295 20.169C39.3004 20.0878 39.3718 20.0472 39.453 20.0168C39.9095 20.0571 40.2347 20.4126 40.6002 20.6563ZM22.8811 17.9756L22.8404 18.1278C20.17 21.1637 18.4134 24.6872 16.7482 28.1902C16.4234 28.4949 16.1084 28.0885 15.8139 27.9564C14.3313 26.9819 12.991 25.4078 13.3769 23.5396C13.9962 21.1029 16.5042 19.8032 18.5963 18.9201C19.8349 18.453 21.1248 18.0773 22.4852 17.864C22.6275 17.8637 22.8101 17.8436 22.8811 17.9756ZM36.1325 18.4629C36.2847 18.5441 36.4676 18.5745 36.559 18.7267C36.6403 18.8993 36.4778 19.0109 36.3864 19.1228C34.2844 20.7675 31.8781 21.6817 29.4206 22.4839C28.1714 22.7886 26.9123 23.3369 25.5215 23.0322C25.1963 22.951 24.9021 22.7377 24.7192 22.4228C24.3739 21.4684 24.841 20.4734 25.2471 19.6408C25.7852 18.5949 26.74 17.3662 28.0598 17.3461C30.9029 17.3256 33.5836 17.7521 36.1325 18.4629ZM39.6458 18.5441C41.7986 19.722 44.2356 21.7932 43.9817 24.5551C43.6872 27.114 41.301 28.901 39.1687 29.9775C32.9441 32.9527 24.2016 33.0438 17.7739 30.4447C15.6007 29.5411 13.1637 27.9875 12.2495 25.6518C11.549 23.7328 12.4017 21.7325 13.8338 20.4024C16.8291 17.6811 20.6471 16.7472 24.5769 16.2088C28.8419 15.6908 33.3297 16.1477 37.1477 17.4576C38.0007 17.7726 38.8435 18.1179 39.6458 18.5441Z" fill="#003984"/>
<rect x="4" width="48" height="48" fill="black" style="mix-blend-mode:saturation"/>
</g>
<defs>
<filter id="filter0_d_0_24707" x="0" y="0" width="56" height="56" filterUnits="userSpaceOnUse" color-interpolation-filters="sRGB">
<feFlood flood-opacity="0" result="BackgroundImageFix"/>
<feColorMatrix in="SourceAlpha" type="matrix" values="0 0 0 0 0 0 0 0 0 0 0 0 0 0 0 0 0 0 127 0" result="hardAlpha"/>
<feOffset dy="4"/>
<feGaussianBlur stdDeviation="2"/>
<feComposite in2="hardAlpha" operator="out"/>
<feColorMatrix type="matrix" values="0 0 0 0 0 0 0 0 0 0 0 0 0 0 0 0 0 0 0.25 0"/>
<feBlend mode="normal" in2="BackgroundImageFix" result="effect1_dropShadow_0_24707"/>
<feBlend mode="normal" in="SourceGraphic" in2="effect1_dropShadow_0_24707" result="shape"/>
</filter>
<clipPath id="clip0_0_24707">
<rect width="48" height="48" fill="white" transform="translate(4)"/>
</clipPath>
</defs>
</svg>
